<?xml version="1.0" encoding="utf-8"?>
<!-- Generator: Adobe Illustrator 24.3.0, SVG Export Plug-In . SVG Version: 6.00 Build 0)  -->
<svg version="1.1" id="Layer_1" xmlns="http://www.w3.org/2000/svg" xmlns:xlink="http://www.w3.org/1999/xlink" x="0px" y="0px"
	 viewBox="0 0 888.3 479.2" style="enable-background:new 0 0 888.3 479.2;" xml:space="preserve">
<style type="text/css">
	.st0{fill:#222220;}
	.st1{fill:#C4007A;}
	.st2{fill:#323230;}
</style>
<g>
	<path class="st0" d="M0.6,394.9C0.1,394.4,0,391,0,382.7V371l1.2-0.2c0.6-0.1,6.8-0.4,13.8-0.5c15.6-0.4,31.7-1.8,49.9-4.5
		c4.5-0.7,8.4-1.1,8.7-1c0.2,0.1,0.4,0,0.4-0.4s0.6-0.5,1.5-0.4c0.8,0.1,1.6,0,1.6-0.1c0.1-0.2,1.4-0.5,2.9-0.5
		c1.5-0.1,2.9-0.3,3-0.5c0.1-0.1,3.9-1,8.2-1.9c4.4-0.9,11.4-2.4,15.5-3.4s7.9-1.6,8.4-1.5c0.4,0.1,0.9,0,1-0.2s3.2-1.2,6.9-2.2
		c6.4-1.7,8.6-2.3,20.5-5.8c19.4-5.8,56.4-19.1,71-25.7c2-0.9,8.7-3.9,14.8-6.5c11-4.9,34.1-16.1,46.5-22.6
		c16.3-8.5,42.1-23.5,52.8-30.4c2.6-1.7,7.9-5,11.8-7.5c7.8-4.9,22.8-15.1,27.5-18.7c1.6-1.3,4.2-3.1,5.8-4.2c1.5-1.1,4-2.9,5.5-3.9
		c1.5-1.1,5.4-3.8,8.5-6c6.2-4.2,8.1-5.6,32-22.2c8.6-6,17.1-11.9,18.8-13c3-2.1,16.3-11.2,22.2-15.4c1.8-1.2,5.4-3.7,8-5.5
		s5.9-4.1,7.2-5c1.4-1,2.8-1.8,3.2-1.8c0.3,0,0.6-0.2,0.6-0.4s1.4-1.4,3.2-2.6c1.7-1.1,7.7-5.4,13.3-9.2c5.7-3.9,12.3-8.6,14.8-10.3
		c7.6-5.3,17.8-12.4,33.9-23.5c3.8-2.6,12.7-8.8,19.7-13.7c7-4.9,15.3-10.7,18.5-12.8s8.8-6.1,12.5-8.7s8.7-6,11-7.7
		c2.3-1.6,6.3-4.3,8.8-6.2c2.5-1.8,7.5-5.2,11.2-7.7c5.8-4.1,20-13.8,41.7-28.8c4.1-2.8,9.2-6.3,11.2-7.8c2.1-1.5,6.2-4.4,9.3-6.5
		c24.8-17,26.2-17.6,11-4.7c-4.7,4-10.8,9.4-13.8,12.1c-2.9,2.6-7.8,6.9-11,9.5c-3.1,2.6-6.2,5.2-6.8,5.8c-0.5,0.6-2.8,2.6-5,4.5
		s-5,4.4-6.2,5.6c-1.2,1.2-4.8,4.3-8,6.9c-3.2,2.7-7.5,6.4-9.5,8.2s-4.5,3.9-5.5,4.7c-1.7,1.4-19.2,16.7-39.4,34.4
		c-5,4.4-10,8.7-11,9.6c-1,0.8-3.6,3.1-5.8,5.1c-2.2,1.9-5.6,4.9-7.5,6.5c-2,1.6-9.8,8.5-17.5,15.2c-15.1,13.4-21.5,19-28.5,24.9
		c-2.5,2.1-7.2,6.2-10.5,9.1c-3.3,2.9-7.6,6.6-9.5,8.2c-2,1.6-5.5,4.8-8,7s-7.8,6.8-11.7,10.2c-4,3.4-9.7,8.6-12.8,11.4
		c-3.2,2.9-7.5,6.5-9.5,8.2c-2,1.6-5.5,4.5-7.5,6.5c-5,4.5-16.7,14.8-22.8,20c-2.7,2.4-8.5,7.4-12.9,11.2c-4.4,3.9-9,7.9-10.4,9
		s-5.5,4.7-9.2,8s-9.8,8.6-13.5,11.8c-3.6,3.1-9.8,8.5-13.6,11.8c-3.8,3.4-10.5,9.2-15,13c-4.8,4.1-9,8.3-10.5,10.4
		c-3.2,4.2-8.7,13.4-8.7,14.5c0,0.5-0.2,0.8-0.5,0.8c-0.2,0-0.4,0.2-0.2,0.5c0.1,0.2-0.1,0.9-0.5,1.2c-0.4,0.5-0.6,0.8-0.5,0.8
		c0.2,0-0.1,0.8-0.6,1.6c-0.5,0.9-1.4,3-1.9,4.6s-1,3.4-1.1,3.8s-0.2,0.9-0.2,1.1s-0.2,1.1-0.7,2.2c-0.6,1.6-0.7,2.2-0.1,4.1
		c2.2,8,10.5,13.6,24.5,16.5l5.2,1.1l258.7,0.2c142.3,0.1,259,0.3,259.4,0.4c0.5,0.2,0.6,2.8,0.5,11.9l-0.2,11.6l-426.2,0.1
		c-234.5,0-429.8,0.1-434.1,0.2c-7.8,0.2-7.9,0.2-7.9-0.9c0-1,0.3-1.1,5.7-1.4c3.1-0.2,7.9-0.4,10.8-0.4s5.9-0.2,6.8-0.5
		c0.8-0.3,5.2-0.9,9.8-1.3c4.6-0.5,10.6-1.1,13.5-1.5s6.5-0.9,8-1s4.4-0.6,6.2-1c1.9-0.4,6.3-1.1,9.8-1.8s10.6-2,15.8-3.1
		c5.2-1.1,10.9-2.3,12.8-2.6c3.3-0.7,5.1-1.1,25.5-6.6c11.2-3,38.4-11.8,47.5-15.4c2.6-1,6.2-2.2,7.9-2.8c1.8-0.5,3.4-1.1,3.8-1.4
		c0.3-0.2,1.8-1,3.3-1.5s4.6-1.9,7-2.9s6.8-2.9,9.8-4s8.9-3.6,13-5.5s10.5-4.7,14.2-6.4c7.4-3.3,12.8-5.9,15.5-7.4
		c1-0.5,4.5-2.3,7.8-4c3.3-1.6,7.9-3.9,10.2-5.1s4.8-2.4,5.4-2.7c1.5-0.7,18.4-10.1,21.1-11.8c1.2-0.8,2.9-1.6,3.6-1.9
		s2.8-1.4,4.5-2.5c1.8-1,5-3,7.3-4.4c2.2-1.4,5.3-3.1,6.8-4c1.4-0.9,5.1-3,8.1-4.8s6.5-4,7.8-5c1.2-1,3.4-2.5,4.7-3.2
		c4.2-2.4,15.9-10,18.1-11.9c1.1-1,3.1-2.4,4.4-3.1c2.3-1.5,10.6-7.5,18.4-13.6c2.2-1.8,4.9-3.8,5.9-4.5s4-3.1,6.6-5.2
		c2.7-2.1,6.4-4.9,8.2-6.2c1.9-1.2,4.9-3.5,6.6-5.1c1.8-1.5,6.4-5.1,10.2-7.9c3.9-2.9,9.4-7.1,12.2-9.4c2.9-2.4,6.8-5.4,8.6-6.9
		c1.9-1.4,4.9-3.9,6.8-5.4c1.9-1.6,3.9-3.1,4.4-3.5c0.6-0.4,2.3-1.8,4-3c1.6-1.2,4.1-3.1,5.5-4.2c1.5-1.1,4.2-3.4,6.2-5
		s5.3-4.1,7.4-5.6c2-1.4,3.9-2.8,4-3.1c0.3-0.5,7.1-5.8,11.8-9.1c1.7-1.2,4.7-3.5,6.5-5c1.9-1.5,4.6-3.6,6-4.8
		c1.4-1.1,3.8-2.9,5.3-4.1c1.5-1.1,4-3.1,5.7-4.4s3.7-2.9,4.5-3.6c0.8-0.8,3.6-2.9,6.2-4.9c4.1-3.1,8.4-6.5,16.5-13.2
		c1.2-1,3.7-2.8,5.5-4.1c1.8-1.2,5.5-3.9,8-6c6-4.9,7.3-5.8,9.6-7.1c1-0.6,2-1.3,2.2-1.7s1.2-1.4,2.2-2.1c1-0.8,3.7-2.9,6-4.6
		c6.7-5.2,7.8-6.2,11-8.5c1.7-1.2,3.6-2.8,4.2-3.4c0.7-0.6,2.8-2.3,4.7-3.8c6.3-4.6,11.3-8.5,13.4-10.3c1.1-1,4.1-3.2,6.7-5.1
		c2.5-1.8,6-4.5,7.8-6c1.7-1.5,4.3-3.6,5.8-4.7c1.5-1,3.6-2.7,4.7-3.7c1.5-1.4,1-1.2-2,0.9c-5.9,4-11.5,7.8-16.5,11.4
		c-2.5,1.8-6.5,4.5-8.9,6.1s-6.2,4.2-8.3,5.8c-2.2,1.6-5.8,4.2-8.1,5.8c-5.1,3.5-36.6,25.3-40.6,28.1c-1.6,1.1-5,3.4-7.6,5.2
		c-4.3,2.9-14.1,9.8-35.9,24.9c-4.5,3.1-9.3,6.4-10.8,7.5s-5.2,3.6-8.2,5.7c-6.2,4.2-10.8,7.4-15,10.6c-1.6,1.2-4,2.9-5.3,3.6
		c-2.6,1.6-17.6,11.9-24.7,17.1c-2.5,1.8-7.3,5.1-10.8,7.5s-11.4,7.9-17.8,12.2c-6.3,4.4-13.6,9.4-16.2,11.2
		c-8.5,5.7-23.5,16.3-30.5,21.5c-9.8,7.2-15.1,10.9-37.7,25.3c-18.6,12-45,26.9-69.1,39c-14,7-35.5,17.1-40.5,19
		c-0.8,0.3-3.4,1.4-5.8,2.5c-13.6,6.2-49.1,19.3-66.1,24.3c-28.4,8.5-47.7,13.2-70.2,17.2C55.7,370,26.5,373,8.7,373H2.5v11.2
		C2.5,395.8,2.4,396.7,0.6,394.9L0.6,394.9z"/>
</g>
<g>
	<path class="st1" d="M94.1,479.1c-2-0.1-3.6-0.3-3.6-0.5s1.4-7.5,3.2-16.1c1.8-8.6,3.6-18,4.1-20.9s0.9-5.4,1.1-5.5
		c0.3-0.4,4.9-0.6,6.1-0.3c0.9,0.2,1.1,0.5,0.8,1.5c-0.4,1.7,1.1,1.9,3.1,0.5c0.9-0.6,2.9-1.5,4.6-2c2.6-0.8,3.4-0.8,5.8-0.3
		c3.6,0.8,4.9,1.8,6.6,5.2c1.3,2.5,1.4,3,1.1,7.1c-0.4,6.4-2.1,10.2-6.1,14c-4.4,4.1-6.9,5.2-11.9,5.4c-2.2,0-4.9-0.1-5.9-0.4
		c-2.1-0.5-1.9-0.8-3.1,6.2c-0.5,2.7-1.1,5.1-1.4,5.5C98,479.1,96.6,479.2,94.1,479.1L94.1,479.1z M109.9,461
		c4.2-1.2,8.1-7,8.4-12.8c0.2-3.1,0.1-3.6-1-4.9c-0.9-1.1-1.8-1.5-3.8-1.7c-2.5-0.2-2.6-0.2-5.1,2.2c-1.4,1.4-3,3.6-3.6,4.9
		c-1.1,2.6-2.6,10.6-2.2,11.4C103.6,461.4,107,461.9,109.9,461L109.9,461z"/>
	<path class="st1" d="M162.2,466.7c-3.3-1.1-6.5-4.2-7.2-7.1c-0.4-1.3-0.5-4-0.4-6.5c0.3-5.4,1.9-8.9,5.6-12.4
		c3.3-3.1,5.8-4.4,10-5.1c9.6-1.8,16.6,4.8,12.9,12c-2.1,4.1-6.6,6-14.6,6.5c-3.4,0.1-5.6,0.5-5.9,0.9c-0.4,0.4-0.3,1.2,0.1,2.5
		c0.6,1.5,1.2,2.2,2.9,3.1c1.9,1,2.6,1.1,5.5,0.9c1.8-0.1,4.3-0.6,5.4-1c2.6-0.9,3-0.6,3,2.8v2.3l-3.1,0.9
		C171.9,467.6,165.4,467.7,162.2,466.7z M173.6,447.2c4.4-2.2,3-6.2-2.1-6.2c-3.1,0-5.4,1.5-7.4,4.6c-0.6,1-1.1,2.1-0.9,2.4
		C163.8,448.8,171.9,448.1,173.6,447.2L173.6,447.2z"/>
	<path class="st1" d="M190.8,467.2c-2.7-0.6-5.1-1.5-5.3-1.9c-0.4-0.5,0.9-4.7,1.5-5.1c0.2-0.1,1.4,0.1,2.8,0.5
		c4.2,1.3,8.6,0.9,9.9-1c0.2-0.3,0.4-1.1,0.4-1.9c0-1.5-1.1-2.5-5.5-5c-4.4-2.6-6.1-5.9-5.1-9.8c1.6-6,9.1-9.1,17.4-7.4
		c1.7,0.4,3.2,0.7,3.3,0.9c0.1,0.1-0.1,1.4-0.6,2.9c-0.8,2.5-1,2.6-2.1,2.4c-3.3-0.8-6.4-0.9-8.1-0.1c-1.5,0.7-1.9,1-1.9,2.3
		c0,1.9,1,3,4.2,4.6c3.4,1.6,6,4.5,6.5,6.6c0.9,4.5-1.6,8.9-6,10.9C199.9,467,192.9,467.8,190.8,467.2L190.8,467.2z"/>
	<path class="st1" d="M220.4,467.1c-3.3-1-5.9-4.2-6.5-7.7c-1-6.4,1.5-13.2,6.3-17.8c3.7-3.5,6.4-4.8,11.3-5.9
		c6-1.2,15.5-0.2,15.5,1.8c0,0.8-0.5,3.3-3,14.5c-0.6,2.6-1.2,7-1.5,9.6l-0.4,5h-3.5l-3.5,0.1l-0.1-3l-0.1-2.9l-1.8,2
		c-1,1.1-2.6,2.5-3.8,3.1C227.1,467.2,222.5,467.7,220.4,467.1L220.4,467.1z M230,460.3c3-1.5,5.2-5.8,6.8-12.7
		c0.6-3,1.1-5.8,0.9-6.1c-0.2-0.4-1.5-0.5-3.1-0.4c-5.4,0.4-10,4.5-11.8,10.7c-1,3.1-1,4.2,0,6.6C224,461.5,226.4,462.1,230,460.3
		L230,460.3z"/>
	<path class="st1" d="M270.3,467.2c-2.2-0.6-4.8-2.9-6-5.2c-1.3-2.4-1.4-2.8-1.1-6.9c0.4-6.2,1.8-9.5,5.9-13.5
		c1.8-1.8,4.3-3.8,5.6-4.4c3.2-1.5,9.1-2.4,11.6-1.6c2.4,0.6,3,0.1,3.4-3.4c0.6-4.1,1.9-9.9,2.2-10.2c0.2-0.2,2-0.4,4.1-0.2
		c3,0.1,3.7,0.3,3.6,0.9c-0.1,0.4-0.6,2.9-1.1,5.5c-2.5,11.6-5.6,27.7-6.5,32.8l-0.9,5.5l-3.6,0.2l-3.6,0.2l0.3-1.9
		c0.4-2.5,0-3.1-1.2-1.6c-1.7,2.1-5.4,3.9-8.7,4C272.6,467.4,270.8,467.3,270.3,467.2L270.3,467.2z M280,460.2
		c1.5-0.8,3.8-3.6,4.5-5.7c1.3-3.8,2.8-11.8,2.4-12.6c-1.1-2.1-8-0.5-11.4,2.6c-2,1.9-4,6.9-4,9.9C271.5,460.5,275,462.8,280,460.2
		L280,460.2z"/>
	<path class="st1" d="M309.5,467.1c-3.2-0.7-5.5-2.2-7.8-5.2c-1.4-1.9-1.5-2.2-1.5-7c0-4.6,0.1-5.4,1.5-8.3
		c3.5-7.5,11.4-12.2,18.8-11.2c5.4,0.7,8.9,4,8.9,8.5c0,6.5-4.9,9.5-16,10.2l-5.2,0.3l0.1,1.8c0.4,5.4,7.5,7.1,15.2,3.8
		c0.6-0.3,1,0,1.4,1.7c0.3,1.1,0.5,2.5,0.4,2.9C325,466.2,313.9,468.1,309.5,467.1L309.5,467.1z M319.5,447.1c2-1,3-3.1,2.2-4.5
		c-0.3-0.5-1.3-1.1-2.2-1.5c-3-1-7,0.9-9.3,4.3c-2,3-1.8,3.2,3.2,2.8C315.8,448.1,318.6,447.6,319.5,447.1L319.5,447.1z"/>
	<path class="st1" d="M352.5,467.2c-0.7-0.1-2.9-0.6-4.9-1c-3.5-0.8-3.6-0.9-3.6-2.1c0-1.8,1.3-5,2.2-5.4c0.4-0.1,1.7,0.2,3,0.8
		c1.8,0.8,3.5,1,6.5,1c3.5,0,4.4-0.1,6.1-1.2c2.5-1.5,3.5-3.9,2.6-6.1c-0.9-2.1-1.9-3-5.2-4.8c-4.5-2.2-8-5.1-9.1-7.3
		c-1.3-2.6-1.1-6.9,0.3-9.9c1.5-3,5.5-6,9.4-7c4.9-1.2,13.6-0.8,15.9,0.9c0.7,0.5,0.7,0.8,0,2.1c-0.4,0.9-1,2.1-1.2,2.9
		c-0.6,1.5-1.1,1.6-4,0.6c-3.3-1.1-8-1-9.8,0.4c-2.8,2.1-3.1,2.8-2.7,5c0.4,1.8,1.9,4,2.8,4c0.8,0,8.2,4.9,9.9,6.4
		c3.5,3.3,3.8,10.2,0.6,14.4c-1.7,2.2-4.9,4.5-7.8,5.4C361.1,467,354.6,467.6,352.5,467.2L352.5,467.2z"/>
	<path class="st1" d="M387,466.8c-2.7-0.9-5.7-3.6-7-6.5c-1.8-3.8-1-11.2,1.5-15.3c3.1-5.1,7-8,12.5-9.3c8.3-1.9,14.6,1.6,14.6,8
		c0,3-1.1,5-3.6,7c-2.7,2-5.7,2.9-11.9,3.2l-5.8,0.4l-0.1,1.4c-0.2,2.1,1.9,4.5,4.6,5.4c2.5,0.7,6.6,0.4,9.9-0.8
		c2.2-0.8,2.4-0.6,2.5,2.9l0.1,2.2l-2.8,0.9C397.8,467.4,390,467.8,387,466.8L387,466.8z M397.6,447.4c1.5-0.5,2.2-1,2.8-2.2
		c0.7-1.5,0.7-1.8-0.1-2.9c-0.7-1.1-1.2-1.3-3.5-1.3c-2,0-3.1,0.3-4.4,1.1c-2.1,1.4-4.7,5-4.2,5.9
		C388.7,448.8,394.4,448.4,397.6,447.4L397.6,447.4z"/>
	<path class="st1" d="M496.1,467c-7-1.4-10.8-8.1-8.9-15.9c1.2-4.9,2.3-7,5.5-10c4.8-4.6,12-6.8,18.3-5.7c1.8,0.4,3.2,0.6,3.3,0.8
		c0.2,0.1-0.2,1.5-0.7,3l-0.8,2.8l-3.8-0.3c-3.5-0.2-4.2-0.1-6.7,1c-6.3,2.9-9.3,12-5.4,16.5c1.8,2,4.7,2.5,9.1,1.6l3.3-0.6l0.2,2
		c0.3,3.1-0.5,4.1-4.3,4.8C501.7,467.6,499.2,467.6,496.1,467L496.1,467z"/>
	<path class="st1" d="M542.5,467.1c-2.5-0.5-5.8-2.9-7.7-5.5c-1.5-2.1-1.5-2.4-1.5-7.2c0-4.2,0.2-5.5,1.2-7.6c2.5-5.5,7.3-9.6,13-11
		c8.4-2.1,16.4,1.9,18,9c1.1,5-1,12.9-4.4,16.4c-2.2,2.1-5.2,4.4-7.2,5.2C551.6,467.1,545,467.6,542.5,467.1L542.5,467.1z
		 M552.2,459.9c3.3-2.5,5.8-9.6,4.9-13.8c-0.5-2.6-1.7-3.9-3.9-4.6c-2.7-0.9-4.8-0.2-7.5,2.5c-5.2,5-5.7,14.8-0.9,16.9
		C546.9,461.8,550.2,461.4,552.2,459.9z"/>
	<path class="st1" d="M573,467.1c-0.7-0.2-2-0.5-2.9-0.8c-2-0.5-2.5-1.4-1.7-2.9c0.3-0.6,0.7-1.6,0.8-2.2c0.3-1.2,0.2-1.2,4.5-0.1
		c5,1.3,8.3,0.4,9-2.5c0.4-1.8-0.8-3.2-3.7-4.7c-5.3-2.7-7.4-5.8-6.8-10.1c0.4-3,3.4-6.2,7-7.5c5-1.6,14.8-0.8,14,1.3
		c-0.2,0.5-0.6,1.5-0.8,2.3c-0.8,2.2-1.2,2.4-3,1.8c-3.1-1-4-1-6.5-0.2c-2.3,0.9-2.4,0.9-2.2,2.9s0.3,2.1,4.4,4.6
		c4.8,3,6.1,4.6,6.1,7.9c0,4.5-1.8,7.3-6,9.1C582.2,467.2,575.5,467.9,573,467.1L573,467.1z"/>
	<path class="st1" d="M662.7,467c-2.5-0.5-5.8-2.9-7.3-5.2c-1.4-1.9-1.5-2.4-1.5-7s0-5.2,1.5-8.2c4.3-9,14.7-13.7,22.8-10.2
		c3,1.2,4.8,4.2,4.8,8c0,5.6-5.2,9-14.8,9.5c-6.9,0.4-7,0.4-6.6,2.5c0.8,4.4,5.7,6.1,12.4,4.5c1.5-0.4,3.1-0.8,3.5-0.9
		c1.2-0.2,1.6,4.1,0.5,5.2C676.4,466.9,666.9,468.1,662.7,467z M672.3,447.4c1.5-0.5,3.2-2.6,3.2-3.9c0-1.4-2-2.5-4.5-2.5
		c-2,0-2.8,0.3-4.6,1.6c-2.2,1.6-4.2,4.6-3.6,5.5C663.2,448.8,670.1,448.2,672.3,447.4L672.3,447.4z"/>
	<path class="st1" d="M732.7,467.1c-8.5-2.2-11.5-10.7-7.2-20.8c0.5-1.1,1-2.1,1.1-2.2c0.2-0.1,0.9-1.1,1.7-2.1
		c3.5-4.7,11-7.5,17-6.4c3.5,0.6,6,2.3,7.2,4.6c1,1.9,1,5.4,0,7.5c-1.5,3.6-8.6,6.4-16.6,6.4c-4.2,0-4.7,0.4-3.7,3.2
		c1.2,3.9,6.2,5.1,12.5,3.4c4-1.1,4-1.1,4.2,2.4l0.1,2.1l-2.8,1C743,467.2,735.2,467.7,732.7,467.1L732.7,467.1z M742.6,447.3
		c2.9-1.2,3.7-3.5,1.9-5.3c-0.8-0.8-1.7-1-3.7-1c-2.3,0-3,0.2-4.8,1.9c-1.8,1.5-3.5,4.2-3.5,5.5
		C732.5,448.9,740.7,448.1,742.6,447.3L742.6,447.3z"/>
	<path class="st1" d="M785.4,467.1c-2.2-0.7-4.9-3.1-5.7-5c-1-2.4-0.9-9.2,0.2-12.4c2.4-7.2,8.7-12.2,17.4-14c3.4-0.7,4.8-0.7,9-0.2
		c2.7,0.3,5.2,0.8,5.5,1c0.3,0.4,0.3,1.5-0.1,3.4c-2.9,13.2-3.7,17.8-4,22c-0.2,3.4-0.5,4.9-1,4.8c-0.3,0-2-0.1-3.7-0.1l-3.1-0.1
		l0.3-2.4c0.2-1.4,0.2-2.5,0-2.8c-0.2-0.2-1.2,0.5-2.1,1.6c-1,1.1-2.6,2.5-3.8,3C792.1,467.2,787.5,467.7,785.4,467.1L785.4,467.1z
		 M795.5,459.8c2.5-1.7,5-6,6.2-11.1c0.5-2.4,1-5,1-5.9c0-1.5,0-1.5-2.7-1.5c-6.2,0-11.4,5.1-12.5,12.3c-0.4,2.6-0.3,3.5,0.3,5
		C789.2,461.7,792,462.1,795.5,459.8z"/>
	<path class="st1" d="M842.5,467.2c-3.2-0.6-5.6-2-7.2-3.9c-0.8-1.1-1.8-2.1-2-2.3s-0.5-2-0.7-4c-0.8-8.5,3.5-16.6,10.8-20.2
		c2.1-1,7.8-2,10.2-1.5c3,0.5,6.5,2.5,7.6,4.3c1,1.7,1.2,5.9,0.3,8c-0.5,1.1-2.9,3.5-4.8,4.6c-1.2,0.7-8.2,1.9-11.6,2
		c-4.3,0.1-4.9,0.4-4.5,2.2c0.7,2.5,2.2,4.1,4.5,4.8c2.5,0.6,7.1,0.2,10-0.9c1-0.4,2-0.7,2.2-0.5c0.1,0.1,0.2,1.4,0.3,2.9l0.2,2.8
		l-2.8,0.9C852.3,467.1,845,467.7,842.5,467.2L842.5,467.2z M851,447.5c5-1.6,4.3-6.5-0.8-6.5c-2.5,0-6.3,2.2-7.8,4.6
		c-1.8,2.9-1.5,3.1,3,2.7C847.6,448.2,850.2,447.8,851,447.5z"/>
	<path class="st1" d="M868.2,467c-3.1-0.6-4.8-1.4-4.8-2.2c0-0.4,0.3-1.5,0.8-2.5c0.7-1.7,0.8-1.9,2.3-1.5c0.9,0.2,3.2,0.5,5.2,0.6
		c4.7,0.4,6.2-0.4,6.2-3.2c0-2.2-0.8-3-4-4.5c-1.2-0.5-3.2-2-4.3-3.2c-2-2.1-2.2-2.6-2.2-4.9c0-5,2.9-8.2,8.8-9.8
		c3.5-0.9,5.3-1,8.6-0.2c3.8,0.9,3.9,1,2.9,4c-0.8,2.5-1,2.5-2.2,2.2c-3-0.8-7-0.9-8.3,0c-2.9,1.9-1.9,4.4,2.8,6.9
		c3.6,1.9,6.5,4.9,6.6,6.9c0.3,5.5-1.8,8.5-7.3,11C877.4,467.3,871,467.6,868.2,467z"/>
	<path class="st1" d="M16.6,466.7l-12.7-0.1l0.3-2.4c0.2-1.3,0.8-4.2,1.3-6.6c0.6-2.4,2.2-10.3,3.8-17.8c1.5-7.4,2.8-14,2.9-14.6
		l0.2-1.1h12.8H38l-0.1,1.1c0,0.6-0.3,2-0.7,3.1l-0.6,2l-8.7,0.2l-8.8,0.2l-1.1,5.1c-0.6,2.8-0.9,5.2-0.8,5.4
		c0.2,0.1,3.8,0.2,8.2,0.2h7.9l-0.3,1.1c-0.2,0.6-0.4,2-0.6,3l-0.3,1.9h-7.8c-5.9,0-8,0.1-8.4,0.6c-0.7,0.9-2.7,10.8-2.3,11.7
		c0.2,0.5,2.4,0.6,9.3,0.6c8.4,0,9.1,0,8.7,0.9c-0.2,0.5-0.6,1.6-0.8,2.6c-0.4,2-0.9,3-1.4,2.9C29.4,466.8,23.5,466.7,16.6,466.7
		L16.6,466.7z"/>
	<path class="st1" d="M38.9,466.7c-0.8-0.1-1.4-0.5-1.4-0.8c0-0.4,1.1-6.1,2.4-12.9s2.6-13.3,2.8-14.6c0.2-1.3,0.6-2.4,0.9-2.5
		c0.3-0.1,1.8-0.2,3.4-0.3l2.8-0.1v2.5v2.5l2-1.9c5.2-5,14.3-4.4,16.5,1l0.7,1.5l1.6-1.8c1.6-1.8,7-4.2,9.4-4.2
		c3.8,0,7.2,2.4,8.2,5.8c0.6,1.9-0.1,8.6-1.6,15c-0.4,1.6-0.9,4.5-1.3,6.2c-0.9,4.6-0.9,4.6-4.6,4.6c-1.8,0-3.4-0.1-3.8-0.2
		c-0.2-0.2-0.1-1.6,0.2-3.5c1.1-5.4,2.6-13.5,2.9-16.1c0.6-4.9-2.9-6.7-7.1-4c-3.1,2-4.8,5.9-6.6,15.4c-0.8,4.4-1.7,8-1.8,8.2
		c-0.3,0.3-6.8,0.4-7.3,0.1c-0.2-0.1,0.4-4.9,1.6-10.5c1.8-8.9,1.9-10.4,1.4-12.1c-0.5-1.6-0.8-2-2.3-2.2c-3.4-0.6-6.8,2-8.9,6.9
		c-0.7,1.5-1.8,6-2.5,10s-1.4,7.4-1.7,7.5C44.6,466.5,40.5,466.9,38.9,466.7L38.9,466.7z"/>
	<path class="st1" d="M130.5,465.8c0-0.6,0.9-5.5,2.1-10.8c1.1-5.4,2.2-11.7,2.6-14.1c0.7-5,1-5.4,5.2-4.9l2.1,0.2v2.5v2.6l1.6-2
		c1.8-2.2,5.9-4.3,8.3-4.3h1.6l-0.3,2.9c-0.5,4.4-0.6,4.5-3,4.8c-5.6,0.6-8.5,5-10.9,16.2c-0.8,4-1.5,7.4-1.6,7.4s-1.9,0.2-3.9,0.3
		C130.7,466.9,130.5,466.8,130.5,465.8L130.5,465.8z"/>
	<path class="st1" d="M411.4,466.5c-0.2-0.2,0.2-3.8,1.4-9c2-9.8,3.2-16.9,3.2-19.4c0-1.9,1.2-2.6,4.4-2.6c2.5,0,3.3,0.6,2.9,2.2
		c-0.5,2,0.9,2.2,2.7,0.4c2-2,8-3.9,8.7-2.6c0.1,0.2,0,1.9-0.4,3.6l-0.6,3.2l-2.3,0.4c-2.3,0.3-5.4,1.8-5.4,2.5c0,0.2-0.5,0.9-1,1.4
		c-2.1,2.1-3.4,6-5.2,16.2l-0.6,3.5l-3.6,0.2C413.6,466.7,411.7,466.6,411.4,466.5L411.4,466.5z"/>
	<path class="st1" d="M443.5,466.3c-0.2-0.2-0.6-2.2-1-4.2s-1.1-6.5-1.8-9.8c-2.8-14.3-3-15.8-2.2-16.3s6-0.6,7.1-0.1
		c0.5,0.1,0.8,0.9,0.8,1.6c0,1.1,1.6,14.5,2.3,19c0.4,2.1,0.9,1.6,2.7-2.6c0.8-1.8,1.8-3.9,2.4-4.6c0.5-0.8,2.3-4,3.9-7.1
		s3-5.8,3-5.9c0.2-0.3,8.3-0.7,8.8-0.5c0.5,0.3-3.8,8-9.2,16.8c-1.7,2.6-4.2,6.8-5.7,9.4l-2.6,4.6l-4,0.1
		C445.6,466.7,443.8,466.6,443.5,466.3z"/>
	<path class="st1" d="M469.5,466.5c-0.2-0.1,0.5-5.1,1.8-11c3-14.6,4-19.2,4.1-19.5c0.2-0.2,7.3-0.5,7.7-0.2
		c0.2,0.1,0.1,1.1-0.1,2.3c-0.2,1.2-0.7,3.3-1,4.6c-0.2,1.4-0.7,3.4-1,4.5s-1.2,5.6-2,10s-1.8,8.3-2,8.7
		C476.6,466.6,470.4,467.1,469.5,466.5L469.5,466.5z"/>
	<path class="st1" d="M515.6,466.1c-0.2-0.4,0.3-3.6,1.1-7.2s2-10,2.9-14.3c1-4.9,1.8-8,2.3-8.4c0.9-0.8,6.9-0.9,7.3-0.2
		c0.2,0.2-1,6.4-2.5,13.6s-2.9,14-3,15l-0.2,1.9l-3.8,0.1C516.8,466.7,515.8,466.6,515.6,466.1z"/>
	<path class="st1" d="M623.2,466.3c-5.7-1.4-10.2-5.7-11.8-11.2c-2.3-7.8,0.4-17.6,6.5-23.6c6.3-6.1,19.3-9.4,28.8-7.1
		c2.1,0.5,4,1,4,1.2c0.2,0.3-1.5,5.1-2,5.9c0,0.1-1.8-0.2-3.9-0.6c-5-1-8-1-11.8,0.2c-4.5,1.4-6.8,2.9-9.2,5.9
		c-2.8,3.5-4.2,7.2-4.2,11.8c0,5.8,2.3,9.5,7,11.1c2.7,1,10,1,11.2,0.1c0.8-0.8,2.7-9,2.2-10.2c-0.2-0.6-0.9-0.8-3.7-0.6l-3.3,0.2
		l0.2-2.5c0.1-1.6,0.5-2.8,1-3.1c1-0.7,14.9-1,15.3-0.2c0.3,0.5-4,21.1-4.5,21.6c-0.2,0.2-2.2,0.8-4.5,1.2
		C635.3,467.2,626.9,467.2,623.2,466.3L623.2,466.3z"/>
	<path class="st1" d="M688.7,466.6c-3.6-0.1-3.5,0-2.5-4.8c1.1-4.8,2.2-10.2,2.8-13.9c0.3-1.8,0.8-4.5,1.2-6s0.7-3.5,0.7-4.3
		c0-1.5,0.2-1.6,2.2-2c1.2-0.2,2.8-0.2,3.7-0.1c1.4,0.1,1.5,0.2,1.3,2.3c-0.2,2.4,0.3,2.6,1.7,1c1.2-1.4,3.8-2.6,7-3.5s7.5,0,9,1.6
		c3,3.1,3,6,0.6,17.9c-0.8,3.7-1.6,7.8-1.8,9.1l-0.3,2.3l-3.6,0.2c-4.3,0.2-5.2-0.2-4.4-2.6c0.3-1,1.2-5.5,2.2-10.1l1.7-8.4l-1-1.9
		c-1-1.7-1.1-1.8-3.6-1.8c-2.2,0-2.8,0.2-4.4,1.8c-3.3,3.2-4.7,6.9-6.7,18C693.5,467.2,693.8,466.9,688.7,466.6L688.7,466.6z"/>
	<path class="st1" d="M755.7,466.4c-0.1-0.2,0.6-4.2,1.5-9c2.2-10.9,3.2-16.6,3.2-19c0-1.3,0.3-2,0.9-2.3c1.2-0.5,4.3-0.8,5.7-0.4
		c1,0.3,1,0.6,0.8,2.5c-0.2,1.3-0.2,2.3,0.2,2.5c0.2,0.1,0.5,0,0.5-0.2c0-0.9,3.5-3.7,5.7-4.6s4.7-1.1,5-0.5
		c0.3,0.5-0.7,5.7-1.3,6.5c-0.2,0.3-1,0.6-1.7,0.6c-1.7,0-4.3,1.3-5.8,2.9c-2,2-3.7,6-5.1,12.7c-1.8,8.6-1.8,8.5-2.2,8.5
		C761.2,466.8,755.9,466.7,755.7,466.4L755.7,466.4z"/>
	<path class="st1" d="M815.2,465.4c0.2-0.6,1.5-7.5,3-15.1c4.7-23.3,5.8-28.1,7-28.5c1.7-0.5,6.2-0.4,6.5,0.2
		c0.2,0.4-1.1,7.5-6.8,35.2c-0.8,4.1-1.7,7.9-1.8,8.4c-0.2,0.7-0.9,0.9-4.3,0.9C815,466.5,814.9,466.5,815.2,465.4z"/>
	<path class="st1" d="M477.8,430.5c-2.6-2-1.3-6,2.2-7c4-1.2,6.8,1.5,5.2,5.2c-0.4,1-1.2,2-1.7,2.4
		C482,431.9,479.2,431.6,477.8,430.5L477.8,430.5z"/>
	<path class="st1" d="M523.8,430.6c-1.2-1.3-1.1-4.6,0.2-6c2.2-2.3,6.3-1.9,7.5,0.8c0.8,2-0.3,4.9-2.2,5.6
		C527.2,431.8,524.8,431.6,523.8,430.6z"/>
	<path class="st1" d="M594.2,349.7c-5.4-0.5-10.7-2.1-12.9-3.8c-0.8-0.6-0.8-0.9,1-4.4c2.5-5.3,2.2-5.1,5.8-3.5
		c5.3,2.5,14.8,3.1,18.3,1.2c1.5-0.8,4.2-3.5,5-5.1s0.7-4.7-0.4-6.5c-1.5-2.5-5-5-12.5-8.8c-2.6-1.3-6.7-5.5-8-8.2
		c-1.8-3.6-1.7-9.4,0.2-13.1c3-5.8,8.3-9.5,16.2-11.4c3.2-0.8,12.3-0.8,15.6,0c3.4,0.8,5.8,1.8,5.9,2.5c0.2,0.6-2.5,8-3.2,8.7
		c-0.1,0.1-1.9-0.4-4-1.1c-9.2-3.1-18.8-0.4-19.6,5.5c-0.5,4,2,6.9,9.3,10.8c7.2,3.8,10.7,7,12.6,11.2c1.5,3.4,1.1,9.8-0.8,13.7
		c-2.5,5.2-8.2,9.5-14.8,11.2C604.7,349.6,597.9,350.1,594.2,349.7L594.2,349.7z"/>
	<path class="st1" d="M635,349.4c-3.2-1.1-5-6.4-3.2-9.8c1.8-3.5,6.5-5.4,10.2-4c2.1,0.8,2.7,1.2,3.8,3.4c1.5,2.9,0.9,6-1.5,8.4
		C641.7,349.9,638.5,350.6,635,349.4L635,349.4z"/>
	<path class="st1" d="M713.7,349.1c-1.5-0.7-2.2-1.4-2.7-2.5c-2-6,1.7-11.5,7.8-11.5c6.4,0,9.3,7.8,4.6,12.5
		C720.9,350,717.1,350.6,713.7,349.1L713.7,349.1z"/>
	<path class="st1" d="M413.5,348.8c-7.8-1.5-13.1-5.1-17.2-11.5c-3-4.6-4-9.5-3.6-16c1.1-15.8,10.6-27.9,25.9-32.9
		c6-2,8.5-2.4,16.8-2.4c6.2,0,8.6,0.2,12.1,1c2.4,0.6,4.5,1.1,4.5,1.2c0.1,0.1,0,0.7-0.3,1.4c-2.2,4.9-2.6,6-2.6,6.9
		c0,1-1.4,1.9-2,1.1c-0.5-0.7-3.4-1.5-7.4-2.2c-5.9-1-14.5,0.1-18.7,2.2c-4.9,2.5-9.8,7.1-11.9,11.1c-2.7,5.1-3.4,7.9-3.4,13.9
		c0,4.9,0.1,5.8,1.3,8.2c0.7,1.5,2,3.5,3,4.4c3.1,2.9,5,3.6,12.7,4.9c2.1,0.3,9.4-0.6,10-1.4c0.5-0.5,3.2-13.5,3.2-15
		c0-0.2-2.6-0.4-5.8-0.4c-5.8,0-5.8,0-5.5-1.1c0.1-0.6,0.5-2.6,0.9-4.5l0.6-3.4h11.6c10.6,0,13.2,0.3,11.7,1.2
		c-0.2,0.1-0.5,0.8-0.5,1.4s-0.4,2.7-0.8,4.6c-0.4,2-1.5,7.5-2.5,12.2c-2.8,13.5-2,12.1-6.5,13.4
		C431.4,349.5,420.5,350.1,413.5,348.8L413.5,348.8z"/>
	<path class="st1" d="M455.5,348.1c0-0.9,7-36,8.8-44.6c0.5-2,1.3-6.4,2-9.6c0.6-3.2,1.2-6.3,1.4-6.8c0.2-0.8,1.8-0.9,18.6-0.8
		c10.1,0,18.5,0.2,18.8,0.5s0.2,1.5-0.2,3c-0.4,1.4-0.8,3.1-0.9,4l-0.2,1.5l-13,0.2l-13,0.2l-1.3,6.6c-0.8,3.6-1.5,7-1.7,7.4
		s-0.2,1.1,0,1.5c0.2,0.6,2,0.8,12,0.8h11.7l-0.3,2.4c-0.2,1.3-0.5,3.3-0.8,4.5l-0.5,2.1h-11.7c-12.5,0-13,0-13,2.5
		c0,0.7-0.7,4.5-1.5,8.3c-0.8,3.9-1.3,7.1-1.2,7.4c0.1,0.2,6.2,0.4,13.5,0.4h13l-0.3,1.6c-0.2,0.9-0.6,3-0.9,4.6l-0.6,3l-19.3,0.1
		C456.3,349,455.5,349,455.5,348.1L455.5,348.1z"/>
	<path class="st1" d="M500.2,347.7c0.7-1.5,4.2-8.2,17.3-32.1c9.8-18,15-28,15-28.5s12.7-1,14.3-0.6c1.2,0.3,1.5,0.7,1.5,2.1
		c0,1,0.9,7.4,1.8,14.2c0.9,6.9,1.8,13.3,1.9,14.2c0.5,4.4,3.8,28,4.2,29.9l0.3,2.1l-6.2-0.1l-6.2-0.1l-0.3-1.5
		c-0.2-0.8-0.7-4.6-1-8.5c-0.3-4-0.8-7.1-1.2-7.4c-0.7-0.5-18.8-0.5-20,0c-0.5,0.2-2.7,3.8-5.2,8.9l-4.3,8.5l-6.3,0.1l-6.3,0.1
		L500.2,347.7L500.2,347.7z M541.2,322.1c0.2-0.2,0-2.6-0.4-5.5c-0.3-2.8-1-8-1.2-11.8c-0.3-3.6-0.8-7.1-1-7.6
		c-0.4-0.9-0.5-0.8-1.1,0.8c-0.8,2.1-7.1,14.8-9.9,20c-1.1,2-2,3.9-2,4.1C525.5,322.6,540.8,322.7,541.2,322.1z"/>
	<path class="st1" d="M650.3,348c0.7-1.5,4.2-8.2,17.3-32.1c9.8-18,15-28,15-28.5s12.7-1,14.3-0.6c1.2,0.3,1.5,0.7,1.5,2.1
		c0,1,0.9,7.4,1.8,14.2c0.9,6.9,1.8,13.3,1.9,14.2c0.5,4.4,3.8,28,4.2,29.9l0.3,2.1l-6.2-0.1l-6.2-0.1l-0.3-1.5
		c-0.2-0.8-0.7-4.6-1-8.5c-0.3-4-0.8-7.1-1.2-7.4c-0.7-0.5-18.8-0.5-20,0c-0.5,0.2-2.7,3.8-5.2,8.9l-4.3,8.5l-6.3,0.1l-6.3,0.1
		L650.3,348L650.3,348z M691.3,322.4c0.2-0.2,0-2.6-0.4-5.5c-0.3-2.8-1-8-1.2-11.8c-0.3-3.6-0.8-7.1-1-7.6c-0.4-0.9-0.5-0.8-1.1,0.8
		c-0.8,2.1-7.1,14.8-9.9,20c-1.1,2-2,3.9-2,4.1C675.6,322.9,690.9,323,691.3,322.4z"/>
</g>
<g>
	<path class="st2" d="M1,393.9c-0.1-0.9-0.2-6.3,0-12l0.2-10.4h6.1c17.8,0,47-3,72.1-7.5c22.8-4,41.6-8.6,70.2-17.2
		c16.9-5,52.4-18.1,66-24.3c2.4-1.1,5-2.2,5.8-2.5c4.9-1.9,26.4-12,40.5-19c24.1-12.1,50.5-27,69.1-39
		c22.5-14.5,27.9-18.1,37.7-25.3c7-5.1,22-15.8,30.5-21.5c2.6-1.8,10-6.8,16.2-11.2c6.4-4.4,14.3-9.9,17.8-12.2s8.3-5.8,10.8-7.5
		c7.1-5.1,22.1-15.4,24.7-17.1c1.3-0.8,3.8-2.4,5.3-3.6c4.2-3.1,8.8-6.4,15-10.6c3-2.1,6.7-4.6,8.2-5.7c1.5-1.1,6.4-4.4,10.8-7.5
		c21.8-15.1,31.6-21.9,35.9-24.9c2.6-1.8,6-4.1,7.6-5.2c4-2.8,35.5-24.6,40.6-28.1c2.3-1.6,6-4.2,8.1-5.8c2.2-1.6,5.9-4.2,8.3-5.8
		c2.4-1.6,6.5-4.3,8.9-6.1c2.5-1.7,6.7-4.6,9.2-6.4c2.6-1.8,8.2-5.7,12.5-8.7c4.2-2.9,9.9-6.8,12.5-8.7c2.6-1.8,6.5-4.4,8.5-5.8
		s4.8-3.3,6-4.2c1.2-0.8,4.7-3.2,7.7-5.3c10.2-7.2,19.5-13.4,20.1-13.4c0.8,0-5.5,5.2-9.7,8c-2.4,1.6-5.8,4.2-7.7,5.8
		c-1.8,1.6-3.8,3.2-4.5,3.7c-2.3,1.5-7.8,5.8-14,10.8c-3.3,2.8-6.5,5.2-7,5.5s-4.4,3.3-8.8,6.8s-8.8,6.8-9.9,7.7
		c-1.2,0.8-3.2,2.4-4.7,3.8c-1.5,1.3-4.8,3.8-7.3,5.6c-2.5,1.8-5.5,4.1-6.7,5.1c-2.1,1.8-7.1,5.7-13.4,10.3c-1.9,1.4-4,3.2-4.7,3.8
		c-0.6,0.7-2.5,2.2-4.2,3.4c-3.2,2.3-4.3,3.2-11,8.5c-2.2,1.8-5,3.9-6,4.6c-1,0.8-2,1.8-2.2,2.1s-1.2,1.1-2.2,1.7
		c-2.2,1.2-3.5,2.2-9.6,7.1c-2.6,2.1-6.2,4.8-8,6s-4.2,3.1-5.5,4.1c-8.1,6.7-12.4,10.1-16.5,13.2c-2.5,1.9-5.3,4.1-6.2,4.9
		c-0.8,0.8-2.9,2.4-4.5,3.6c-1.7,1.2-4.2,3.2-5.7,4.4c-1.5,1.1-3.9,3-5.3,4.1c-1.5,1.1-4.2,3.2-6,4.8c-1.8,1.5-4.8,3.8-6.5,5
		c-4.7,3.4-11.4,8.6-11.8,9.1c-0.2,0.2-2,1.6-4,3.1s-5.4,3.9-7.4,5.6c-2,1.6-4.8,3.9-6.2,5c-1.4,1.1-3.9,3-5.5,4.2s-3.3,2.6-4,3
		c-0.5,0.4-2.5,1.9-4.4,3.5c-1.9,1.5-4.9,3.9-6.8,5.4c-1.9,1.4-5.8,4.5-8.6,6.9s-8.4,6.6-12.2,9.4c-3.9,2.9-8.5,6.4-10.2,8
		c-1.8,1.5-4.8,3.9-6.6,5.1c-1.9,1.3-5.5,4-8.2,6.2c-2.6,2.1-5.6,4.5-6.6,5.2s-3.6,2.8-5.9,4.5c-7.8,6-16.1,12.1-18.4,13.6
		c-1.3,0.8-3.3,2.2-4.4,3.1c-2.2,1.8-13.9,9.5-18.1,11.9c-1.4,0.8-3.5,2.2-4.7,3.2s-4.8,3.2-7.8,5s-6.8,3.9-8.1,4.8
		c-1.5,0.9-4.5,2.6-6.8,4s-5.5,3.4-7.3,4.4c-1.7,1-3.8,2.1-4.5,2.5c-0.8,0.3-2.4,1.1-3.6,1.9c-2.8,1.7-19.6,11.1-21.1,11.8
		c-0.6,0.3-3,1.5-5.4,2.7s-7,3.5-10.2,5.1c-3.3,1.6-6.8,3.4-7.8,4c-2.7,1.5-8.1,4.1-15.5,7.4c-3.7,1.6-10.1,4.5-14.2,6.4
		c-4.1,1.9-10,4.4-13,5.5s-7.4,3-9.8,4c-2.4,1-5.5,2.3-7,2.9c-1.5,0.5-3,1.2-3.3,1.5c-0.4,0.2-2,0.9-3.8,1.4s-5.4,1.8-7.9,2.8
		c-9.1,3.5-36.3,12.4-47.5,15.4c-20.4,5.5-22.2,6-25.5,6.6c-1.8,0.4-7.5,1.5-12.8,2.6c-5.2,1.1-12.3,2.5-15.8,3.1s-7.8,1.4-9.8,1.8
		c-1.9,0.4-4.8,0.9-6.2,1s-5.1,0.6-8,1s-8.9,1-13.5,1.5s-9.1,1-10,1.2s-5.8,0.6-10.8,0.8c-12.6,0.4-12.2,0.4-12.2,0.9
		c0,0.2-2.7,0.4-5.9,0.4H1L1,393.9L1,393.9z"/>
	<path class="st2" d="M332,342c0-1.1,1.5-4.2,1.8-3.9c0.2,0.2-1.3,4.9-1.6,4.9C332.1,343,332,342.6,332,342L332,342z"/>
	<path class="st2" d="M334,337c0-0.8,3-6.6,3.3-6.4s-2.6,6.9-3,6.9C334.1,337.5,334,337.3,334,337z"/>
</g>
</svg>
